<?xml version="1.0" standalone="no"?><!DOCTYPE svg PUBLIC "-//W3C//DTD SVG 1.1//EN" "http://www.w3.org/Graphics/SVG/1.1/DTD/svg11.dtd"><svg class="icon" height="512" viewBox="0 0 1024 1024" version="1.1" xmlns="http://www.w3.org/2000/svg"><path d="M911.552 622.224c-132.784 12.288-325.456 250.4-385.776 358.224-58.832-91.568-100.48-152.448-220.448-192.88l110.224-55.104 110.224 165.328c0 0 152.128-310.4 358.224-413.328C881.728 556.304 887.04 578.656 911.552 622.224zM773.776 236.448c0.64-66.416-14.432-81.584-82.672-82.672l-110.224 0L580.88 98.672l165.328 0c41.664 0 82.672 43.968 82.672 82.672l0 275.552C796.496 489.168 773.776 512 773.776 512L773.776 236.448zM636 208.896c25.92 0.656 25.648 12.032 27.552 27.552 2.112 17.168 0 27.552 0 27.552L277.776 264c0 0 0.704-10.272 0-27.552-0.864-20.976 16.688-28.8 27.552-27.552l82.672 0c0 0 1.584-49.536 0-110.224-0.896-34.384 26.176-82.032 82.672-82.672 56.96-0.64 82.672 31.776 82.672 82.672 0 54.8 0 110.224 0 110.224L636 208.896zM470.672 98.672c-15.216 0-27.552 12.336-27.552 27.552s12.336 27.552 27.552 27.552c15.216 0 27.552-12.336 27.552-27.552S485.888 98.672 470.672 98.672zM167.552 236.448l0 633.776c-0.816 59.92 19.648 83.92 82.672 82.672-25.744 0.08 192.88 0 192.88 0 33.84 18.08 35.648 34.448 47.856 55.104L195.12 1008c-42.176-0.448-82.672-41.728-82.672-84.416l0-742.24c0-42.16 39.744-82.144 82.672-82.672l165.328 0 0 55.104-110.224 0C195.264 153.408 167.552 191.968 167.552 236.448zM718.672 952.896c36.368 0 55.104-37.824 55.104-55.104L773.776 760c4.592-26.304 34.432-38.08 55.104-55.104l0 220.448C829.296 966.56 786.672 1008 746.224 1008L571.152 1008c-0.096-20.528 21.536-34 37.296-55.104L718.672 952.896z" /></svg>